# xmcd
#
# Track frame offsets:
#	150
#	19005
#	36554
#	55597
#	69038
#	88651
#	109401
#	127961
#	146944
#	162175
#	180505
#	199391
#	218126
#	236821
#	253663
#
# Disc length: 3610 seconds
#
# Revision: 0
# Processed by: cddbd v1.5.2PL0 Copyright (c) Steve Scherf et al.
# Submitted via: audiograbber 1.83.01
#
DISCID=d90e180f
DTITLE=Chartbuster Karaoke - Essential 8 disk 10
DYEAR=1900
DGENRE=Karaoke
TTITLE0=Rodney Atkins - Watching You
TTITLE1=Steve Holy - Brand New Girlfriend
TTITLE2=Carrie Underwood - Don't Forget To Remember Me
TTITLE3=Jack Ingram - Love You
TTITLE4=Little Big Town - Bring It On Home
TTITLE5=Martina McBride - Anyway
TTITLE6=Jake Owen - Startin' With Me
TTITLE7=Rascal Flatts - My Wish
TTITLE8=Julie Roberts - Girl Next Door
TTITLE9=Josh Turner - Would You Go With Me
TTITLE10=Kenny Chesney - You Save Me
TTITLE11=LeAnn Rimes - Some People 
TTITLE12=Lonestar - Mountains
TTITLE13=Tim McGraw - When The Stars Go Blue
TTITLE14=Gretchen Wilson - One Of The Boys
EXTD=
EXTT0=
EXTT1=
EXTT2=
EXTT3=
EXTT4=
EXTT5=
EXTT6=
EXTT7=
EXTT8=
EXTT9=
EXTT10=
EXTT11=
EXTT12=
EXTT13=
EXTT14=
PLAYORDER=
